<?xml version="1.0" encoding="UTF-8"?>
<svg version="1.1" xmlns="http://www.w3.org/2000/svg" width="512" height="512">
<path d="M0 0 C0.99787033 -0.00335861 1.99574066 -0.00671722 3.02384949 -0.01017761 C6.30391708 -0.01963198 9.58393332 -0.02162793 12.86401367 -0.02270508 C15.15793376 -0.02592141 17.45185365 -0.02928577 19.74577332 -0.03279114 C24.5479683 -0.03876856 29.35014531 -0.04063245 34.15234375 -0.04003906 C40.28520563 -0.0399375 46.41795158 -0.05358964 52.55078602 -0.07081127 C57.2873334 -0.08196642 62.02385305 -0.08395719 66.76041222 -0.08342934 C69.02047818 -0.08460415 71.28054498 -0.08899775 73.54059792 -0.0967617 C76.7107401 -0.106633 79.8806345 -0.10365552 83.05078125 -0.09765625 C83.97114166 -0.10327576 84.89150208 -0.10889526 85.8397522 -0.11468506 C99.80660209 -0.04800892 112.5944111 3.35465567 122.97338867 13.17260742 C133.24702696 24.7792905 134.15968082 37.48343418 133.90698242 52.27026367 C133.89190305 53.8145214 133.87822042 55.35879343 133.8659668 56.90307617 C133.83323099 60.65077382 133.78162999 64.39792476 133.71948242 68.14526367 C134.29263624 68.14065471 134.86579006 68.13604574 135.45631218 68.13129711 C149.43793889 68.02061007 163.41949945 67.93800665 177.40147209 67.88620281 C184.16323512 67.86048133 190.92470469 67.82544815 197.6862793 67.76806641 C204.21555597 67.71268272 210.74464272 67.68381375 217.27414322 67.67087746 C219.76115837 67.66166228 222.24815749 67.64366717 224.73504257 67.61661339 C228.22745072 67.58014316 231.7186127 67.57532609 235.21118164 67.57763672 C236.74220268 67.55067215 236.74220268 67.55067215 238.30415344 67.52316284 C245.36982433 67.57351257 250.84805087 69.11534474 256.71948242 73.14526367 C263.22751972 79.89405241 265.02284286 86.6325693 264.99414062 95.8059082 C265.00180702 97.08041084 265.00180702 97.08041084 265.0096283 98.38066101 C265.02348679 101.17987182 265.02256951 103.97883519 265.02026367 106.77807617 C265.02415431 108.73615611 265.02848974 110.69423521 265.0332489 112.65231323 C265.04070431 116.75611098 265.04042595 120.85982271 265.03515625 124.96362305 C265.02938038 130.19524802 265.04625035 135.42651679 265.06950092 140.65808296 C265.08431578 144.70413232 265.08509916 148.7500976 265.0819912 152.79616928 C265.08250111 154.72327247 265.08767615 156.65038078 265.09780312 158.57745743 C265.21189694 183.33708491 265.21189694 183.33708491 258.53198242 194.33276367 C258.00217773 195.23381836 257.47237305 196.13487305 256.92651367 197.06323242 C254.71948242 200.14526367 254.71948242 200.14526367 252.73266602 201.82324219 C247.97316523 206.0906554 246.25825806 209.56977268 245.80744934 215.8306427 C245.65665663 220.12646933 245.66956192 224.41024241 245.71948242 228.70776367 C245.71138041 230.49749724 245.6996939 232.28721837 245.68432617 234.0769043 C245.6546524 238.43397805 245.67369721 242.78835609 245.71948242 247.14526367 C246.29375977 247.32412109 246.86803711 247.50297852 247.4597168 247.68725586 C258.40402083 251.19760732 268.00839597 256.65185597 276.71948242 264.14526367 C277.5419043 264.84651367 278.36432617 265.54776367 279.21166992 266.27026367 C300.69061972 285.07250544 312.80991671 309.74463249 315.46948242 338.08276367 C316.89306516 364.62049467 309.51741577 391.5739435 291.83276367 411.79370117 C291.13538086 412.5697168 290.43799805 413.34573242 289.71948242 414.14526367 C288.84356445 415.21647461 288.84356445 415.21647461 287.94995117 416.30932617 C271.76965226 435.9378855 245.85403886 447.15600551 220.95385742 449.67651367 C192.24786799 452.01484903 164.92725886 443.59499868 142.71948242 425.14526367 C131.81212564 415.73817529 123.47414817 404.80213555 117.08081055 391.90771484 C116.6367688 391.01388596 116.19272705 390.12005707 115.73522949 389.19914246 C115.40003296 388.52136246 115.06483643 387.84358246 114.71948242 387.14526367 C113.46787952 387.14379711 112.21627663 387.14233055 110.92674637 387.14081955 C81.18363124 387.10507992 51.44063195 387.04878453 21.69761015 386.96734272 C18.03286355 386.95732585 14.3681165 386.94748162 10.70336914 386.93774414 C9.97381625 386.93580277 9.24426335 386.93386139 8.4926028 386.93186119 C-3.30392994 386.90088132 -15.10044325 386.88387177 -26.89700899 386.87206945 C-39.01085512 386.85963705 -51.12459966 386.83208866 -63.23838162 386.79065061 C-70.03853602 386.76781895 -76.83855936 386.75185843 -83.6387558 386.75337982 C-90.04426213 386.75412663 -96.44944827 386.73616674 -102.85487175 386.70409584 C-105.20092495 386.69560373 -107.5470141 386.69384219 -109.89307594 386.69946098 C-139.3202429 386.76053042 -139.3202429 386.76053042 -151.28051758 375.14526367 C-160.99061165 364.95351811 -162.88259239 354.32467271 -162.71533203 340.60522461 C-162.71260022 339.17655668 -162.71173864 337.74788416 -162.71258545 336.31921387 C-162.71099685 333.26518288 -162.69747692 330.21153044 -162.6746769 327.15758514 C-162.63977704 322.32398907 -162.63890599 317.49074179 -162.64360046 312.65704346 C-162.65107326 299.78901583 -162.61772121 286.92117788 -162.55716914 274.05329537 C-162.51735425 265.58050575 -162.49744062 257.10820225 -162.5155465 248.6353209 C-162.52422511 243.83386426 -162.50131396 239.03393958 -162.45451891 234.23271894 C-162.43266791 231.24508801 -162.44005945 228.25804973 -162.45553589 225.270401 C-162.45683841 223.88971459 -162.44621857 222.50895529 -162.42253685 221.12847137 C-162.13448121 213.61992663 -162.13448121 213.61992663 -164.81215477 206.83827972 C-166.54876517 205.10478143 -168.34887809 203.6511197 -170.28051758 202.14526367 C-182.02975987 186.11819323 -182.43986543 170.7906365 -182.44848633 151.67651367 C-182.45170659 149.98840304 -182.45507122 148.30029269 -182.45857239 146.61218262 C-182.4645305 143.08886061 -182.46641559 139.56556301 -182.46582031 136.04223633 C-182.46571859 131.55046446 -182.47939672 127.05885028 -182.49659252 122.56711578 C-182.50776209 119.08562514 -182.50973804 115.60417212 -182.50921059 112.12266541 C-182.51038223 110.46743728 -182.51475764 108.81220791 -182.52254295 107.15699768 C-182.62519973 83.09043164 -182.62519973 83.09043164 -174.28051758 74.14526367 C-167.70885551 67.90218471 -160.92461048 67.8578787 -152.31811523 67.91821289 C-151.22483917 67.91792084 -150.13156311 67.91762878 -149.00515747 67.91732788 C-145.40155016 67.91871811 -141.79815115 67.93426515 -138.19458008 67.94995117 C-135.69208896 67.95368238 -133.18959638 67.95652885 -130.68710327 67.95852661 C-124.77988619 67.9653754 -118.87273563 67.98112877 -112.96555269 68.00122559 C-105.57706466 68.02581389 -98.18856732 68.03652416 -90.80004883 68.04760742 C-77.62683399 68.06904246 -64.4536805 68.10278265 -51.28051758 68.14526367 C-51.29099121 67.39019531 -51.30146484 66.63512695 -51.31225586 65.85717773 C-51.35434176 62.36990818 -51.3800087 58.88269237 -51.40551758 55.39526367 C-51.42227539 54.20803711 -51.4390332 53.02081055 -51.45629883 51.79760742 C-51.54539979 35.4921318 -49.03793818 23.39740722 -37.60473633 11.34057617 C-26.98145025 1.30648075 -14.01859003 -0.00685752 0 0 Z M-28.28051758 26.14526367 C-32.94987306 33.27095505 -34.42009049 39.95153588 -34.37817383 48.41870117 C-34.37495117 49.57241211 -34.37172852 50.72612305 -34.3684082 51.91479492 C-34.3600293 53.10459961 -34.35165039 54.2944043 -34.34301758 55.52026367 C-34.33850586 56.73327148 -34.33399414 57.9462793 -34.3293457 59.19604492 C-34.31760124 62.17913912 -34.29966701 65.16220782 -34.28051758 68.14526367 C-29.99051758 68.14526367 -25.70051758 68.14526367 -21.28051758 68.14526367 C-21.24313477 66.19362305 -21.20575195 64.24198242 -21.16723633 62.23120117 C-21.10157092 59.66086964 -21.03512378 57.09055799 -20.96801758 54.52026367 C-20.94545898 53.23506836 -20.92290039 51.94987305 -20.8996582 50.62573242 C-20.86420898 49.38178711 -20.82875977 48.1378418 -20.79223633 46.85620117 C-20.76605225 45.7145752 -20.73986816 44.57294922 -20.71289062 43.39672852 C-20.21314219 39.63859767 -19.38382986 37.30427211 -17.28051758 34.14526367 C-11.9642765 30.5950939 -7.12448554 30.72390814 -0.96411133 30.77294922 C0.06100555 30.76929855 1.08612244 30.76564789 2.14230347 30.7618866 C5.52236629 30.75379737 8.90194728 30.76737811 12.28198242 30.78198242 C14.63557942 30.78250122 16.98917686 30.78198275 19.34277344 30.7804718 C24.27211996 30.78056145 29.20130269 30.79097659 34.13061523 30.80908203 C40.44565198 30.83176871 46.76044946 30.83231244 53.07551575 30.82556438 C57.93455121 30.82222116 62.79353224 30.82886122 67.65255737 30.83869362 C69.98094396 30.84253978 72.30933661 30.84369626 74.63772583 30.84210777 C77.89295974 30.84173647 81.1478882 30.85437606 84.40307617 30.87060547 C85.36325653 30.86812805 86.32343689 30.86565063 87.31271362 30.86309814 C92.13737769 30.90144104 96.24926123 31.09415917 100.71948242 33.14526367 C103.06736569 36.94665918 103.02147995 40.80683336 103.13354492 45.19604492 C103.16259415 46.18425484 103.16259415 46.18425484 103.19223022 47.19242859 C103.25164183 49.2807451 103.29825533 51.36911791 103.34448242 53.45776367 C103.38269774 54.88031272 103.42175151 56.30283952 103.46166992 57.7253418 C103.55887864 61.19852815 103.63874662 64.67149964 103.71948242 68.14526367 C108.00948242 68.14526367 112.29948242 68.14526367 116.71948242 68.14526367 C116.83522312 63.91172614 116.93443467 59.68381952 116.99414062 55.44995117 C117.01906097 54.01453919 117.05301117 52.5792511 117.09667969 51.14428711 C117.39414765 41.10736825 116.81191518 32.85636658 109.81640625 25.01098633 C103.32910106 18.45533766 94.89952199 16.82466413 85.91181946 16.73867798 C84.98008408 16.74475067 84.04834869 16.75082336 83.08837891 16.75708008 C81.5716861 16.74919464 81.5716861 16.74919464 80.02435303 16.7411499 C76.7129326 16.72804607 73.40200069 16.73665327 70.09057617 16.74682617 C67.77230233 16.74480284 65.45402912 16.74188924 63.13575745 16.73812866 C58.28998726 16.73371846 53.44438357 16.74009502 48.59863281 16.75415039 C42.40276828 16.77125085 36.20729343 16.76138704 30.01144314 16.743433 C25.22863351 16.73256818 20.44591556 16.73605376 15.6631031 16.74381638 C13.379059 16.74581042 11.09500643 16.74338723 8.81097221 16.73637772 C5.61415573 16.72871782 2.4179618 16.7404309 -0.77880859 16.75708008 C-1.71256821 16.75100739 -2.64632782 16.74493469 -3.60838318 16.73867798 C-12.98816615 16.82870229 -21.63799195 19.21330337 -28.28051758 26.14526367 Z M-4.28051758 47.14526367 C-4.28051758 54.07526367 -4.28051758 61.00526367 -4.28051758 68.14526367 C25.74948242 68.14526367 55.77948242 68.14526367 86.71948242 68.14526367 C86.71948242 61.21526367 86.71948242 54.28526367 86.71948242 47.14526367 C56.68948242 47.14526367 26.65948242 47.14526367 -4.28051758 47.14526367 Z M-62.28051758 85.14526367 C-66.61686664 115.79137521 -66.61686664 115.79137521 -57.08168793 138.42643833 C-53.50766976 140.6194906 -50.52984115 140.7003492 -46.46179199 140.64646912 C-45.2907378 140.65477071 -45.2907378 140.65477071 -44.09602594 140.66324002 C-41.48336996 140.67683939 -38.87167046 140.66188165 -36.2590332 140.64697266 C-34.38465469 140.6507561 -32.51027896 140.65625635 -30.63591003 140.66334534 C-25.54707095 140.6773139 -20.45856943 140.66612027 -15.36974907 140.64963412 C-10.04560959 140.63578977 -4.72148984 140.642243 0.60266113 140.64576721 C9.54383793 140.64846982 18.48488052 140.63498936 27.42602539 140.61181641 C37.76494319 140.58520639 48.10363658 140.58345941 58.44257689 140.59520477 C68.38608898 140.60598199 78.32951986 140.59979591 88.27302551 140.58564949 C92.50578225 140.57988921 96.73847957 140.57997271 100.97123718 140.58471489 C105.95516741 140.58948533 110.93885176 140.57938011 115.92273521 140.55776024 C117.75249591 140.55219313 119.58228025 140.55172638 121.41204262 140.5567131 C123.90855405 140.56266395 126.4043132 140.55016499 128.90075684 140.53294373 C129.98855131 140.54195879 129.98855131 140.54195879 131.09832144 140.55115598 C135.48826006 140.49603726 138.25079427 139.86769282 141.71948242 137.14526367 C152.13677574 123.25553925 144.71948242 102.5074192 144.71948242 85.14526367 C76.40948242 85.14526367 8.09948242 85.14526367 -62.28051758 85.14526367 Z M-145.28051758 222.14526367 C-145.3740681 238.9569533 -145.44454913 255.76856138 -145.48776627 272.58045197 C-145.50836846 280.38697525 -145.53644398 288.19333656 -145.58227539 295.99975586 C-145.62221523 302.80592889 -145.64796742 309.61198457 -145.65687156 316.41827154 C-145.6620743 320.02031327 -145.67425301 323.62201937 -145.70343781 327.22395325 C-145.73579756 331.25060752 -145.73647243 335.27668282 -145.73461914 339.3034668 C-145.74900024 340.4903006 -145.76338135 341.6771344 -145.77819824 342.89993286 C-145.73874971 350.82626918 -144.68606022 356.25901819 -139.31567383 362.38745117 C-138.66469727 362.9262793 -138.0137207 363.46510742 -137.34301758 364.02026367 C-136.69461914 364.57456055 -136.0462207 365.12885742 -135.37817383 365.69995117 C-129.95085634 369.43944367 -125.05898777 369.42670683 -118.68180847 369.38577271 C-117.70973444 369.38748155 -116.7376604 369.3891904 -115.73612958 369.39095104 C-112.47635533 369.39424732 -109.21678656 369.38323982 -105.95703125 369.37231445 C-103.62134811 369.37175037 -101.28566462 369.37206684 -98.94998169 369.37319946 C-92.60540782 369.37377409 -86.26090932 369.36200195 -79.91635299 369.34805155 C-73.95875427 369.33682756 -68.00115851 369.33480581 -62.04355065 369.3327478 C-50.24435156 369.32837194 -38.44518015 369.3150658 -26.64599609 369.29614258 C-15.18506 369.27778096 -3.72413143 369.26362583 7.73681641 369.25512695 C8.44342074 369.25460151 9.15002508 369.25407606 9.87804166 369.25353469 C13.42291333 369.25092459 16.96778505 369.24839718 20.51265681 369.24591088 C49.91494985 369.22518178 79.31721584 369.18981041 108.71948242 369.14526367 C108.65005936 368.34576797 108.58063629 367.54627228 108.5091095 366.72254944 C108.41844711 365.66071945 108.32778473 364.59888947 108.234375 363.50488281 C108.14432693 362.45788712 108.05427887 361.41089142 107.96150208 360.33216858 C105.63888152 329.74799595 111.60037289 302.08445729 131.71948242 278.14526367 C132.66694336 276.9619043 132.66694336 276.9619043 133.63354492 275.75463867 C149.8383536 256.45452946 174.94281963 244.94425567 199.71948242 242.14526367 C204.80722231 241.92849111 209.87840955 241.95374714 214.96948242 242.02026367 C216.31192355 242.03032792 217.65437211 242.0394476 218.99682617 242.04760742 C222.23779119 242.07092372 225.47866196 242.10678427 228.71948242 242.14526367 C228.71948242 235.54526367 228.71948242 228.94526367 228.71948242 222.14526367 C225.17237462 223.32763294 221.78592801 224.47669022 218.34838867 225.87963867 C177.43777926 242.25121482 133.26866224 246.37161007 89.71948242 250.14526367 C89.5003418 251.17264648 89.28120117 252.2000293 89.05541992 253.25854492 C85.8803332 267.43236535 80.90640041 279.21538749 68.42260742 287.70776367 C56.5291685 294.59775587 43.81396227 297.02383279 30.23510742 294.49682617 C17.79322938 291.01429093 7.86693253 284.50530676 1.06713867 273.46166992 C-1.89458531 268.00891159 -3.72789642 262.83329235 -4.95239258 256.74682617 C-5.20601562 255.50497559 -5.45963867 254.263125 -5.72094727 252.98364258 C-5.99793457 251.57864502 -5.99793457 251.57864502 -6.28051758 250.14526367 C-7.9297522 250.00278198 -7.9297522 250.00278198 -9.61230469 249.85742188 C-105.71219312 241.47611281 -105.71219312 241.47611281 -143.28051758 222.14526367 C-143.94051758 222.14526367 -144.60051758 222.14526367 -145.28051758 222.14526367 Z M145.17260742 287.31323242 C128.39438843 306.68299161 122.05189356 330.94513337 123.71948242 356.14526367 C126.50889582 378.54221224 138.32478349 398.78856235 155.34057617 413.39526367 C174.827448 428.22034299 197.67586447 435.26528605 222.15698242 432.52026367 C243.02575134 429.25951853 259.97997444 420.08576494 274.71948242 405.14526367 C275.38463867 404.47881836 276.04979492 403.81237305 276.73510742 403.12573242 C284.07806454 395.27009136 289.30490401 385.95569932 293.09448242 375.95776367 C293.45231812 375.01513672 293.45231812 375.01513672 293.81738281 374.0534668 C300.143889 356.36577187 300.32638873 334.72049809 293.71948242 317.14526367 C293.3456543 316.0959668 292.97182617 315.04666992 292.58666992 313.96557617 C284.2722815 292.3261414 267.95956181 275.31793483 247.09838867 265.57495117 C210.76285648 250.20061038 172.61792579 259.22061881 145.17260742 287.31323242 Z " fill="#57A4FF" transform="translate(189.280517578125,30.854736328125)"/>
<path d="M0 0 C0.80052292 -0.00073013 1.60104584 -0.00146027 2.42582703 -0.00221252 C5.06152026 0.0012601 7.69542759 0.04010361 10.33081055 0.0793457 C12.16211481 0.08867504 13.99343159 0.09579058 15.82475281 0.1007843 C20.63700007 0.11984469 25.44848877 0.16893712 30.26043701 0.2243042 C35.17376444 0.27551744 40.08721483 0.29830277 45.00073242 0.32348633 C54.63583072 0.37705687 64.27036685 0.46235801 73.9050293 0.56762695 C73.91049774 1.49604652 73.91049774 1.49604652 73.91607666 2.44322205 C73.95806246 8.91678694 74.02752011 15.38965343 74.11254883 21.86279297 C74.14068038 24.2748311 74.16193356 26.68696008 74.17602539 29.09912109 C74.19756257 32.57737477 74.24427064 36.05454508 74.2956543 39.5324707 C74.29688293 40.60158188 74.29811157 41.67069305 74.29937744 42.77220154 C74.46021823 51.09521924 76.36559136 58.87879702 82.21751499 65.16501808 C92.20802539 73.46881644 102.63369479 73.42316052 114.90136719 73.31225586 C116.79660336 73.31712024 118.69183438 73.32456715 120.58705139 73.3343811 C125.70289646 73.35308901 130.81796886 73.33444326 135.93375325 73.30771685 C141.30442267 73.28497023 146.67505731 73.29331182 152.04576111 73.29721069 C161.06123371 73.2989728 170.07640445 73.2768941 179.09179688 73.23999023 C189.49498657 73.19764769 199.89773459 73.19064015 210.30099303 73.20311415 C220.33583182 73.21452749 230.37051606 73.20318038 240.40533257 73.18076706 C244.6638419 73.1715108 248.92225616 73.16971179 253.18077278 73.17393875 C258.20019271 73.17772309 263.21916701 73.1613558 268.23848534 73.12981796 C270.07378419 73.12137792 271.90912845 73.11960024 273.74443817 73.12519836 C284.77617841 73.1537282 294.07847559 72.72292051 303.7800293 66.81762695 C311.58871297 58.54960895 313.1988764 50.10411034 313.3190918 39.04418945 C313.33845795 37.94287689 313.3578241 36.84156433 313.3777771 35.70687866 C313.43737858 32.20220596 313.48388092 28.69750007 313.5300293 25.19262695 C313.56822692 22.81110251 313.60727968 20.42959161 313.6472168 18.0480957 C313.74306417 12.22139341 313.82816831 6.39460896 313.9050293 0.56762695 C324.37968788 0.47492667 334.8542488 0.40386175 345.32923412 0.36037827 C350.19326967 0.33950779 355.05702447 0.31119996 359.92089844 0.26586914 C364.61526052 0.2223922 369.30935264 0.19848579 374.00390053 0.18811798 C375.79448 0.18072993 377.58504478 0.1663027 379.37550926 0.14470673 C381.88461553 0.1156477 384.39260786 0.11167192 386.90185547 0.11352539 C387.64128891 0.09914429 388.38072235 0.08476318 389.14256287 0.06994629 C392.7834714 0.09902754 394.75633231 0.47128382 397.84272766 2.4710083 C401.47037557 6.15902083 401.06464876 9.41161595 401.08203125 14.33105469 C401.08860245 15.13297745 401.09517365 15.93490021 401.10194397 16.76112366 C401.12170721 19.42449028 401.13335123 22.08780021 401.14331055 24.7512207 C401.14738607 25.66239214 401.1514616 26.57356358 401.15566063 27.51234627 C401.17654225 32.34253844 401.19083035 37.1727021 401.20019531 42.00292969 C401.2112157 46.97251935 401.24555863 51.94165578 401.28536701 56.91108608 C401.31163716 60.74692056 401.31989673 64.58264925 401.32347679 68.41856575 C401.32832227 70.24883113 401.33987749 72.07909243 401.35851479 73.90926933 C401.49686868 88.40617801 400.19541503 99.50444545 389.9050293 110.56762695 C384.1918758 116.34449591 378.06537673 120.75714967 370.9050293 124.56762695 C370.04393555 125.0368457 369.1828418 125.50606445 368.2956543 125.98950195 C338.75347526 140.8404352 302.47157644 145.51837349 269.9050293 148.56762695 C269.20490723 148.63675293 268.50478516 148.70587891 267.78344727 148.77709961 C258.16286398 149.70749029 248.5585476 149.67281057 238.9050293 149.56762695 C238.51573242 148.74520508 238.12643555 147.9227832 237.7253418 147.07543945 C231.33665591 134.32750863 223.37184322 126.01322384 209.9050293 120.56762695 C208.55538086 120.00881836 208.55538086 120.00881836 207.1784668 119.4387207 C196.54822458 116.60990923 183.2233598 117.10316182 173.40893555 122.0871582 C172.58264648 122.57571289 171.75635742 123.06426758 170.9050293 123.56762695 C170.08905273 124.02524414 169.27307617 124.48286133 168.43237305 124.9543457 C158.53197491 130.98714256 153.62756412 139.18842955 148.9050293 149.56762695 C129.30445844 149.97502912 110.23307928 148.19318122 90.92114258 144.90258789 C88.21385744 144.45279433 85.49739956 144.07617056 82.7800293 143.69262695 C54.07515523 139.22579706 18.3640937 133.36487015 -2.0949707 110.56762695 C-2.58481445 110.05844727 -3.0746582 109.54926758 -3.5793457 109.0246582 C-10.80796303 101.20558451 -13.23017776 92.84798035 -13.2878418 82.39013672 C-13.29601929 81.56853058 -13.30419678 80.74692444 -13.31262207 79.90042114 C-13.33739802 77.18663249 -13.3539686 74.47289572 -13.3684082 71.7590332 C-13.37373188 70.83117445 -13.37905556 69.9033157 -13.38454056 68.94734001 C-13.41123326 64.03977155 -13.43062389 59.13222823 -13.44506836 54.22460938 C-13.45842831 50.16318341 -13.48632409 46.10225741 -13.52709961 42.04101562 C-13.57635799 37.1345143 -13.60118026 32.22846771 -13.60829544 27.32172966 C-13.61501429 25.45299245 -13.63025284 23.58426565 -13.65418625 21.71566963 C-13.68577061 19.10140988 -13.68588562 16.4889118 -13.6784668 13.87451172 C-13.69487213 13.1039595 -13.71127747 12.33340729 -13.72817993 11.539505 C-13.68439821 7.76950681 -13.20022915 5.72229572 -11.06443787 2.58392334 C-7.32239651 0.04304175 -4.36974515 -0.10490633 0 0 Z " fill="#9AC8FF" transform="translate(37.094970703125,114.432373046875)"/>
<path d="M0 0 C4.31481785 3.99058298 7.64926789 7.61794034 8.2734375 13.63671875 C8.30695313 14.64347656 8.34046875 15.65023438 8.375 16.6875 C8.44847656 18.17830078 8.44847656 18.17830078 8.5234375 19.69921875 C7.0196771 29.18188692 -1.42429436 35.80194091 -7.9609375 42.21875 C-9.03634828 43.28600379 -10.11101148 44.35401136 -11.18496704 45.42272949 C-14.00015167 48.22089537 -16.8237916 51.01035924 -19.64984131 53.79754639 C-24.16649105 58.25475181 -28.6704477 62.72477136 -33.17363358 67.1955719 C-34.7344136 68.74257067 -36.299046 70.2855829 -37.86434937 71.82800293 C-43.13681424 77.03852225 -48.21447226 82.33683575 -53 88 C-58.58946728 94.32354366 -64.59463704 99.79971577 -73.16796875 101.40625 C-81.30620087 101.78404027 -86.14600809 98.04302323 -91.85238647 92.96435547 C-95.2756634 89.83319026 -98.59620903 86.60576872 -101.89453125 83.34375 C-102.60856613 82.63778687 -103.32260101 81.93182373 -104.05827332 81.20446777 C-105.55291349 79.72354928 -107.04608751 78.24114967 -108.5378418 76.75732422 C-110.05879733 75.24795909 -111.58422735 73.74308994 -113.11401367 72.24267578 C-115.34240653 70.05694869 -117.55725292 67.85827212 -119.76953125 65.65625 C-120.45078568 64.99250366 -121.1320401 64.32875732 -121.8339386 63.64489746 C-126.50883154 58.94845405 -129.46640495 54.85548581 -130.3984375 48.12109375 C-130.34308256 41.78295261 -130.05848874 37.13400698 -125.41796875 32.37890625 C-120.06286328 27.51381043 -115.7548786 25.83106715 -108.57421875 25.5390625 C-98.9499316 27.26237947 -92.96654713 34.55988666 -86.5 41.25 C-85.47750647 42.29259328 -84.4540759 43.33426845 -83.4296875 44.375 C-80.94222863 46.90616887 -78.4676938 49.44954041 -76 52 C-70.30119819 47.31218919 -65.1421406 42.21232416 -59.98539925 36.93830299 C-57.99201923 34.90227352 -55.98879152 32.87604638 -53.9862051 30.84907818 C-50.2733388 27.09076739 -46.56457603 23.32861456 -42.87231445 19.55004883 C-40.28810079 16.90619522 -37.69162467 14.27493602 -35.0868206 11.65137291 C-34.10353775 10.65641788 -33.12478403 9.65696389 -32.15089607 8.65281105 C-23.13788836 -0.63332217 -12.69577283 -7.55286681 0 0 Z " fill="#57A4FF" transform="translate(456,334)"/>
<path d="M0 0 C8.17642772 4.92644476 13.28579512 11.09614312 16.171875 20.30859375 C17.70935342 30.70734979 16.42519733 39.55661485 10.171875 48.30859375 C4.33871241 55.17627021 -2.75837453 58.76246209 -11.671875 59.72265625 C-22.44853845 60.28628393 -30.01903753 57.9636084 -38.140625 50.74609375 C-44.0178513 44.39201339 -47.04672451 36.81438658 -47.390625 28.18359375 C-46.87909786 18.36227267 -43.09784085 11.51901849 -36.29296875 4.515625 C-26.41882242 -4.32572631 -12.00288075 -5.82018882 0 0 Z " fill="#9AC8FF" transform="translate(245.828125,250.69140625)"/>
<path d="M0 0 C0.71935226 0.25692627 1.43870453 0.51385254 2.17985535 0.77856445 C1.71277648 5.12442873 -0.88673717 7.11182707 -3.94514465 10.02856445 C-7.06795024 13.02161358 -10.04557853 15.99706975 -12.85041809 19.2890625 C-20.38324047 27.93973881 -28.64879348 35.95145203 -36.72688293 44.09033203 C-38.88423225 46.2656333 -41.0326997 48.44918255 -43.17414856 50.64013672 C-45.77555824 53.30156647 -48.39123781 55.94813023 -51.01795578 58.58457756 C-52.01266133 59.58784638 -53.00222052 60.59624511 -53.98643875 61.60980415 C-55.35713875 63.01921826 -56.74860431 64.40834753 -58.14094543 65.79638672 C-58.925914 66.59166275 -59.71088257 67.38693878 -60.51963806 68.20631409 C-62.82014465 69.77856445 -62.82014465 69.77856445 -65.36958313 69.73712158 C-68.12298002 68.66010793 -69.61173844 67.4998369 -71.70832825 65.42382812 C-72.43192535 64.71606735 -73.15552246 64.00830658 -73.90104675 63.27909851 C-74.66583344 62.50935196 -75.43062012 61.73960541 -76.21858215 60.9465332 C-77.01293671 60.15837723 -77.80729126 59.37022125 -78.62571716 58.55818176 C-80.29986407 56.89113315 -81.96889246 55.21893065 -83.63313293 53.54199219 C-86.19084545 50.970387 -88.77166716 48.4237045 -91.3553009 45.87817383 C-92.97784688 44.25657873 -94.59899018 42.63357866 -96.21858215 41.0090332 C-96.99551422 40.24535934 -97.77244629 39.48168549 -98.57292175 38.69487 C-99.2776059 37.97765274 -99.98229004 37.26043549 -100.70832825 36.52148438 C-101.64834183 35.58002815 -101.64834183 35.58002815 -102.60734558 34.61955261 C-103.82014465 32.77856445 -103.82014465 32.77856445 -103.51463318 30.54463196 C-103.28545197 29.96182968 -103.05627075 29.3790274 -102.82014465 28.77856445 C-100.73176575 28.38208008 -100.73176575 28.38208008 -97.82014465 28.77856445 C-95.33770916 30.61154577 -93.32432682 32.86199241 -91.23420715 35.12231445 C-89.96099549 36.44414661 -88.68755074 37.76575428 -87.41389465 39.0871582 C-85.42459228 41.18211769 -83.44141965 43.28253088 -81.46369934 45.38842773 C-79.54805284 47.41886061 -77.61133227 49.42731581 -75.67170715 51.43481445 C-75.08918182 52.06915405 -74.50665649 52.70349365 -73.90647888 53.35705566 C-71.0728878 56.27439397 -69.41643361 57.63350513 -65.391922 58.61254883 C-60.15275832 57.38924171 -57.53940866 54.5474588 -53.82014465 50.77856445 C-52.95120575 49.91650391 -52.08226685 49.05444336 -51.18699646 48.16625977 C-48.66531692 45.65121597 -46.17119668 43.11018211 -43.68213844 40.56289673 C-40.87513452 37.69431494 -38.05212169 34.84152272 -35.23225403 31.9855957 C-31.66243638 28.36774907 -28.09748774 24.74541148 -24.54743958 21.1081543 C-21.65933834 18.14993954 -18.75691826 15.20647567 -15.84430504 12.2723999 C-14.74046101 11.15496032 -13.64205368 10.03212295 -12.54926491 8.90386963 C-11.02719874 7.33370216 -9.48757598 5.78303715 -7.94245911 4.2355957 C-7.07168228 3.348479 -6.20090546 2.4613623 -5.30374146 1.54736328 C-2.82014465 -0.22143555 -2.82014465 -0.22143555 0 0 Z " fill="#98C7FF" transform="translate(445.8201446533203,348.221435546875)"/>
</svg>
